<?xml version="1.0" encoding="UTF-8" standalone="no"?>
<svg
   xmlns:dc="http://purl.org/dc/elements/1.1/"
   xmlns:cc="http://creativecommons.org/ns#"
   xmlns:rdf="http://www.w3.org/1999/02/22-rdf-syntax-ns#"
   xmlns:svg="http://www.w3.org/2000/svg"
   xmlns="http://www.w3.org/2000/svg"
   xmlns:sodipodi="http://sodipodi.sourceforge.net/DTD/sodipodi-0.dtd"
   xmlns:inkscape="http://www.inkscape.org/namespaces/inkscape"
   version="1.1"
   id="Layer_1"
   x="0px"
   y="0px"
   viewBox="0 0 612 333.6"
   style="enable-background:new 0 0 612 333.6;"
   xml:space="preserve"
   sodipodi:docname="Code for NoVA ink.svg"
   inkscape:version="0.92.4 (5da689c313, 2019-01-14)"><metadata
   id="metadata3909"><rdf:RDF><cc:Work
       rdf:about=""><dc:format>image/svg+xml</dc:format><dc:type
         rdf:resource="http://purl.org/dc/dcmitype/StillImage" /><dc:title></dc:title></cc:Work></rdf:RDF></metadata><defs
   id="defs3907" /><sodipodi:namedview
   pagecolor="#ffffff"
   bordercolor="#666666"
   borderopacity="1"
   objecttolerance="10"
   gridtolerance="10"
   guidetolerance="10"
   inkscape:pageopacity="0"
   inkscape:pageshadow="2"
   inkscape:window-width="1920"
   inkscape:window-height="1001"
   id="namedview3905"
   showgrid="false"
   showguides="false"
   inkscape:zoom="2.4220623"
   inkscape:cx="306"
   inkscape:cy="166.8"
   inkscape:window-x="-9"
   inkscape:window-y="41"
   inkscape:window-maximized="1"
   inkscape:current-layer="Layer_1" />
<style
   type="text/css"
   id="style3812">
	.st0{fill:#647486;}
	.st1{fill:#C63A38;}
	.st2{fill:#6B6B7B;}
	.st3{fill:#5C6C7E;}
	.st4{fill:#AC4A4F;}
	.st5{fill:#516172;}
	.st6{fill:#697789;}
	.st7{fill:none;}
	.st8{fill:#2F4153;}
	.st9{fill:#FFFFFF;}
</style>
<rect
   class="st0"
   width="612"
   height="333.6"
   id="rect3814" />
<path
   class="st1"
   d="m 436.4,173.1 c -3.4,4.1 -3.5,8.1 0.8,11.6 2.8,2.3 2.8,5.2 2.7,8.3 v -0.1 c -4.9,3.1 -15.8,2.1 -17.2,-2.3 -2.1,-6.4 -3.9,-3.3 -6.3,-0.7 -3.9,-0.5 -4.2,-2.9 -3.6,-6.2 1.1,-5.6 1.6,-11.3 3.1,-16.7 1.4,-5.5 0,-9.2 -5.2,-11.5 -1.2,-4.3 -3.7,-1.3 -5.4,-0.8 -2.3,0.6 -4.4,1.3 -5.4,-1.4 -1.5,-4.1 -4,-4.1 -7.8,-3.4 -6,1.2 -8.1,-1.5 -5.3,-6.8 1.5,-2.9 0.1,-3.8 -1.6,-5.2 3.6,-6.3 12.27723,-9.98713 15.97723,-16.38713 2,-3.4 0.92277,-8.01287 4.22277,-10.81287 3.6,0.3 7.1,-4 10.5,-0.9 3.3,3 7.2,3.7 11.2,4.8 2.1,5.2 10.6,2.7 11.6,9.3 -1.7,2.7 -6,1.6 -7.6,5.5 4.3,0.5 8.1,0.5 10.5,-3.6 3.9,0.1 6.7,2.5 9.6,4.7 -0.4,1.2 -0.8,2.5 -1.2,3.7 h 0.1 c -4.2,2.1 -8.4,4.5 -12.8,6.3 -3.5,1.4 -4.6,3.7 -4,7.2 -2,2.3 -4.5,4.4 -5.8,7 -4.2,8.6 -1.4,13.9 8.9,18.4 z m -9.5,-42.2 0.6,-0.3 -0.5,-0.3 z"
   id="path3816"
   inkscape:connector-curvature="0"
   style="fill:#c63a38"
   sodipodi:nodetypes="cccccccccccccccccccccccccccccccc" />





<path
   class="st4"
   d="M441.6,125.8c-2.5,4.1-6.2,4.1-10.5,3.6c1.5-3.8,5.8-2.8,7.6-5.5C439.6,124.6,440.6,125.2,441.6,125.8z"
   id="path3828"
   style="fill:#c63a38;fill-opacity:1" />
<path
   class="st5"
   d="M524.2,219.9c0.6,0.5,1.2,1.1,1.7,1.6c-1.1,2.2-1.9,4.8-5,6.2C520.3,224.2,522.2,222.1,524.2,219.9z"
   id="path3830" />
<path
   class="st2"
   d="M449.9,134.2c0.4-1.2,0.8-2.5,1.2-3.7c1,0.6,2.5,1,2.2,2.4C453,134.5,451.4,134.4,449.9,134.2z"
   id="path3832" />
<path
   class="st6"
   d="M325.8,162.9c-0.2-0.5-0.4-1-0.5-1.6c0.3,0.3,0.6,0.6,0.8,1C326.1,162.5,325.9,162.7,325.8,162.9z"
   id="path3834" />

<g
   id="g3850">
	<path
   class="st7"
   d="M525.9,221.6c3.5-5,7.1-10,10.6-15.1c1.1-1.6,3.2-3.5,0.2-5.3c-3-1.8-4.3,0.2-5.4,2.5   c-2.4,5.4-4.8,10.8-7.2,16.2c-1.9,2.1-3.8,4.3-3.3,7.8C524.1,226.4,524.8,223.8,525.9,221.6z"
   id="path3838" />
	<path
   class="st7"
   d="M179,264c2.1-1,4.2-2.1,6.4-3.1C182.6,261,180.4,262.2,179,264z"
   id="path3840" />
	<path
   class="st7"
   d="M511.9,282.8c0.7-7-3.2-8-9.1-8.3c-13.6-0.6-27.1-2.6-40.2-6.5c-3.2-1-6.8-1.7-5.8-6.5c0.9-4.2,2.7-6.4,7.9-6   c10.3,0.7,15.4-3.3,16.1-13.7c0.8-12,2.5-23.7,7.6-34.7c2.1-4.5,0.7-6.2-3.7-7.7c-12.2-4.2-20.6-12.7-25.6-24.4   c-1.5-3.5-3.2-4.4-6.4-3.3c-5.3,1.8-10.6,2.7-16.2,1.3c-10.3-4.5-13-9.8-9-18.5c1.2-2.7,3.8-4.7,5.8-7c5.5-4.6,12.7-7,16.8-13.4   c0,0,0,0,0,0l0.1,0c0,0,0,0,0,0c1.4,0.2,3,0.4,3.4-1.4c0.3-1.4-1.3-1.7-2.2-2.3c-2.9-2.2-5.7-4.6-9.6-4.7l-3-1.8   c-1-6.6-9.4-4.1-11.6-9.3c-1.2-3.8-4.9-4.9-7.7-6.9c-8.1-5.8-8.2-5.7-14,3c-3.2,2.8-4.7,7-6.7,10.4c-3.7,6.4-9.9,10.5-13.5,16.8   c-1,0.7-2.3,1.1-2.9,2c-1.8,2.7,4.3,21.1,7.3,21.9c1.2,0.3,2.7-0.5,4-1c5.7-1.8,10.9-5.1,17-5.4c5.2,2.3,6.6,6,5.2,11.5   c-1.4,5.5-1.9,11.2-3.1,16.7c-0.7,3.3-0.3,5.7,3.6,6.2c5.1,3.5,10.3,6.7,15.3,10.4c4,3,6.3,2.5,7.3-2.5c0.3-1.6,0.6-3.2,0.9-4.8   c0,0,0,0,0,0c0,0,0-0.1,0-0.1c0,0,0,0,0,0c2.1-3.4,4.2-6.9,6.4-10.2c1.5-2.2,2.7-6.2,6.1-4.7c3.7,1.6,1.9,5.5,1.1,8.3   c-2.2,7.6-4,15.2-5.2,23c-1.4,9.5-6.3,11.6-14.4,6.3c-9.8-6.4-19.2-13.4-30.1-17.9c-4.2-1.7-4.6-5.1-4-8.9   c0.8-4.7,1.9-9.4,2.7-14.1c0.6-3.7-0.6-4.6-4.4-3.4c-15.1,5-15.1,4.9-21.7-9.4c-0.7-1.5-1.5-3-2.2-4.5c-7.9-17-7.7-18.1,5.1-32   c1-1.1,1.9-2.1,2.9-3.2c8.4-9.5,8.4-9.5-2.1-15.6c-1.2-0.7-2.5-1.4-3.7-2.2c-3.6-2.4-5.6-2.2-7.1,2.6c-5.6,18-14.6,34.2-27.7,47.9   l0,0c-18.6,13.8-32.7,10.7-41.6,5.2c0.2,9.2-2.4,21.3-16.3,42.5c-1,1.6-2.2,3.3-3.4,5c-0.1,0.1-0.1,0.3-0.2,0.4c0,0-0.1,0-0.1,0   c-4.2,5.9-9.5,12.8-16.2,20.2c-2.5,2.1-5.8,4.7-9.8,7.6c-2,1.6-4.1,3-6.3,4.2c-0.1,0.1-0.2,0.2-0.4,0.2   c-17.1,10.7-32.5,15.3-41.7,18c-6.6,1.9-15.7,4.1-26.7,5.7c-9,1-17.8-0.5-24.7-9.4c-2-2.6-3.8-0.5-5.5,0.8   c-12.5,10.1-26.6,17.7-40.7,25.3c-8.6,4.7-17.3,9.2-26.3,14c2.9,2.1,5.3,1.4,7.6,1.4c14.1,0.3,28.2,0,42.3,0.7   c36.2,1.9,72.4,5.1,108.6,5c39.9-0.2,79.7-1.6,119.5-2.2c29.6-0.4,59.2-0.3,88.8-0.3c18.2,0,36.2-1.2,54.4-2.2   c3.8-0.2,8.8,0.4,11-1.7c2.7-2.7-1.9-6.7-2-10.4C512.1,284.2,511.8,283.5,511.9,282.8z"
   id="path3842" />
	<path
   class="st8"
   d="M449.9,134.2C449.9,134.2,450,134.2,449.9,134.2C450,134.2,450,134.1,449.9,134.2L449.9,134.2z"
   id="path3844" />
	<path
   class="st8"
   d="M439.9,193C439.9,193,439.9,192.9,439.9,193C439.9,192.9,439.9,192.9,439.9,193   C439.9,192.9,439.9,193,439.9,193z"
   id="path3846" />
	<path
   class="st8"
   d="m 555.7,294.4 c -0.7,-3.6 -4.2,-2.4 -6.6,-2.2 -2.8,0.2 -5.6,0.9 -8.5,1.2 -13.1,1.5 -16.5,-1.4 -17.6,-15 -0.2,-2.1 0,-4.4 -0.5,-6.4 -1,-4.1 0.5,-9.3 -3.2,-12.1 -4.5,-3.3 -2.5,-5.7 -0.3,-8.7 10.4,-14.6 20.8,-29.1 31.2,-43.8 2.1,-3 5.3,-5.9 2.9,-10.3 -2.2,-4.1 -5.9,-4.4 -9.9,-4.1 -3.8,0.3 -6.9,0.1 -7.5,-5.1 -0.4,-3.4 -3.2,-5.2 -7,-4.1 -3.6,1 -7.8,2.4 -6.7,6.8 1.4,5.1 -0.9,8.9 -2.8,12.8 -7,14.4 -13.5,29 -18.1,44.4 -1.5,5.2 -2.2,10.2 2.5,14.9 -5.1,0.9 -9.1,-0.9 -13.3,-1.4 -3.5,-0.4 -3.2,-2.9 -1.7,-5.3 3.6,-5.9 4.4,-12.5 4.4,-19.3 0,-6.7 1.6,-13.2 4.1,-19.5 2.1,-5.3 4.2,-10.7 5.3,-16.3 1.9,-9.1 -4.2,-14.7 -13.2,-12.7 -1.9,0.4 -3.4,-0.1 -4.7,-1.1 -7.6,-5.6 -14.7,-11.3 -16.3,-21.6 -1.5,-9.5 -6.9,-11.8 -15.2,-7.2 -1.5,0.8 -2.9,1.7 -4.5,2.2 -2.9,1 -7.1,2.6 -8.7,0.1 -2,-3.2 2.5,-5 4.5,-7 5.7,-5.5 13.7,-7.8 19.2,-13.6 6.2,-6.6 6,-11.3 -1.3,-16.6 -14.9,-10.8 -29.8,-21.5 -44.7,-32.3 -6.1,-4.4 -10.1,-3.6 -14.2,2.8 -1.8,2.9 -3.7,6.6 -7.4,5.7 -8.2,-1.9 -16.1,-5.4 -21.4,-11.9 -2.4,-3 -3.3,-6.9 -8.1,-6.2 -5.1,0.8 -5.1,5.2 -5.5,8.9 -1.9,15.8 -8.4,29.8 -16.9,42.9 -2,3.1 -3.4,7 -7.7,7.9 0,0 -15.4,11.5 -33,7.9 -3.1,-4.1 -7.9,-3.7 -12.4,-3.6 -0.6,1.3 -1.1,2.6 -1.7,4 1.5,7.6 1.4,14.6 0.2,21.1 -5,9.7 -10,19.4 -15.1,29 -4.9,4.7 -12.3,10.8 -23.8,19 -7.3,5.2 -17,11.8 -28.8,19 -14.1,6.5 -28.2,13.2 -44.1,13.9 -10.8,0.5 -12,-0.6 -14.8,-10.9 -1.9,-6.9 -6.2,-8.3 -11.5,-3.6 -2.9,2.5 -5.4,5.5 -8.4,7.8 -14.7,11.1 -30.5,20.6 -47.2,28.5 -16.6,7.8 -31.3,20.6 -51.1,20.6 -2.8,0 -5.7,2.1 -5.3,5.6 0.4,3.4 2.5,5.6 6.1,6 1.7,0.2 3.3,0.1 5,0.2 22.9,0.7 45.8,1 68.7,2 37.4,1.7 74.8,4.9 112.3,5.2 22.4,0.2 44.9,-0.2 67.3,-0.8 48,-1.3 96,-1.4 144,-1.7 24.6,-0.2 49.1,-1.1 73.5,-4.5 11.4,-1.6 22.6,-4 33.7,-6.8 2.9,-0.5 6.6,-0.8 5.8,-4.7 z m -31.5,-74.5 7.2,-16.2 c 1.1,-2.3 2.4,-4.3 5.4,-2.5 3,1.8 0.9,3.6 -0.2,5.3 -3.5,5.1 -7.1,10.1 -10.6,15.1 -1.1,2.2 -1.9,4.8 -5,6.2 -0.53497,-2.75128 0.44864,-4.62646 1.83491,-6.33973 0.42763,-0.52851 0.89358,-1.04161 1.36509,-1.56027 z m -10,75.3 c -2.1,2.1 -7.2,1.5 -11,1.7 -18.1,1 -36.2,2.3 -54.4,2.2 -29.6,0 -59.2,-0.1 -88.8,0.3 -39.9,0.6 -79.7,2 -119.5,2.2 -36.3,0.2 -72.4,-3.1 -108.6,-5 -14.1,-0.7 -28.2,-0.5 -42.3,-0.7 -2.3,0 -4.7,0.7 -7.6,-1.4 9,-4.8 17.7,-9.3 26.3,-14 14,-7.6 28.2,-15.2 40.7,-25.3 1.6,-1.3 3.5,-3.3 5.5,-0.8 6.9,9 15.5,10.6 24.5,9.6 10.34571,-1.10989 18.49007,-3.22842 26.9,-5.9 9.3,-2.7 24.6,-7.2 41.7,-18 0.1,-0.1 0.2,-0.2 0.4,-0.2 2.1,-1.2 4.2,-2.6 6.3,-4.2 4,-2.8 7.3,-5.5 9.8,-7.6 6.7,-7.4 12.1,-14.3 16.2,-20.2 h 0.1 c 0.1,-0.1 0.1,-0.3 0.2,-0.4 1.2,-1.8 2.4,-3.5 3.4,-5 14,-21.1 16.5,-33.3 16.3,-42.5 8.9,5.5 22.9,8.6 41.6,-5.2 v 0 c 13.1,-13.7 22.2,-29.9 27.7,-47.9 1.5,-4.8 3.5,-5 7.1,-2.6 1.2,0.8 2.5,1.4 3.7,2.2 10.5,6.2 10.5,6.2 2.1,15.6 -0.9,1.1 -1.9,2.1 -2.9,3.2 -12.8,13.9 -13,15 -5.1,32 0.7,1.5 1.5,3 2.2,4.5 6.6,14.3 6.6,14.4 21.7,9.4 3.7,-1.2 5,-0.3 4.4,3.4 -0.8,4.7 -1.9,9.4 -2.7,14.1 -0.6,3.8 -0.2,7.2 4,8.9 10.9,4.4 20.3,11.5 30.1,17.9 8.1,5.3 13,3.2 14.4,-6.3 1.1,-7.8 3,-15.4 5.2,-23 0.8,-2.8 2.6,-6.7 -1.1,-8.3 -3.4,-1.5 -4.6,2.5 -6.1,4.7 -2.3,3.3 -4.3,6.8 -6.4,10.2 l -0.9,4.8 c -1,5.1 -3.3,5.5 -7.3,2.5 -4.9,-3.7 -10.2,-7 -15.3,-10.4 -3.9,-0.5 -4.2,-2.9 -3.6,-6.2 1.1,-5.6 1.6,-11.3 3.1,-16.7 1.4,-5.5 0,-9.2 -5.2,-11.5 -6.1,0.4 -11.3,3.6 -17,5.4 -1.3,0.4 -2.8,1.3 -4,1 -3.1,-0.8 -9.2,-19.2 -7.3,-21.9 0.6,-0.9 1.9,-1.4 2.9,-2 3.6,-6.3 9.8,-10.4 13.5,-16.8 2,-3.4 3.4,-7.6 6.7,-10.4 5.9,-8.8 5.9,-8.8 14,-3 2.8,2 6.4,3.1 7.7,6.9 2.1,5.2 10.6,2.7 11.6,9.3 l 3,1.8 c 3.9,0.1 6.7,2.5 9.6,4.7 1,0.6 2.5,1 2.2,2.3 -0.4,1.7 -4.64144,5.41541 -6.04144,5.21541 C 440.92363,143.33493 439.2,142.8 433.7,147.4 c -2,2.3 -4.5,4.4 -5.8,7 -4.1,8.7 -1.3,14 9,18.5 5.5,1.4 10.9,0.4 16.2,-1.3 3.3,-1.1 5,-0.2 6.4,3.3 5,11.7 13.5,20.2 25.6,24.4 4.3,1.5 5.8,3.1 3.7,7.7 -5.1,11 -6.8,22.7 -7.6,34.7 -0.7,10.3 -5.8,14.4 -16.1,13.7 -5.2,-0.4 -7,1.8 -7.9,6 -1,4.8 2.7,5.6 5.8,6.5 13.1,3.9 26.6,5.9 40.2,6.5 6,0.3 9.9,1.3 9.1,8.3 -0.1,0.7 0.2,1.4 0.3,2.1 -0.3,3.8 4.3,7.8 1.6,10.4 z"
   id="path3848"
   inkscape:connector-curvature="0"
   style="fill:#2f4153"
   sodipodi:nodetypes="ccccccccccccccccccscccccccccccccccccccccccccccccccsccccccccccccscccsccccccccccccccccccccccccccsccccccccccccccccccccccccccccccccccccccccccccccccc" />
</g>
<g
   id="g3856">
	<path
   class="st9"
   d="M197.7,95.2h10.8v10.7h-10.8V95.2z"
   id="path3852" />
	<path
   class="st9"
   d="M197.7,115.2h10.8v10.7h-10.8V115.2z"
   id="path3854" />
</g>
<g
   id="g3862">
	<path
   class="st9"
   d="M220,95.2h10.8v10.7H220V95.2z"
   id="path3858" />
	<path
   class="st9"
   d="M220,115.2h10.8v10.7H220V115.2z"
   id="path3860" />
</g>
<g
   id="g3902">
	<g
   id="g3866">
		<path
   class="st9"
   d="M243,229.6l-38.8-99.9h19.7l27,72.5l26-72.5h20L258,229.6H243z"
   id="path3864" />
	</g>
	<g
   id="g3876">
		<path
   class="st9"
   d="M80.7,116.4c-2.5,6.9-8.1,11-15.3,11c-7.8,0-16.2-6.3-16.2-16.5c0-9.4,7.7-16.3,16.1-16.3    c3.8,0,12.2,1.8,15.3,11.2h-8.2c-0.9-1.5-2.6-4.5-7.1-4.5c-4.4,0-8.8,3.3-8.8,9.6c0,5.3,3.7,9.6,9.2,9.6c2.4,0,4.8-1.2,6.8-4.3    H80.7z"
   id="path3868" />
		<path
   class="st9"
   d="M83.7,111.1c0-9.3,7.5-16.4,16.2-16.4c8.6,0,16.1,6.9,16.1,16.3c0,10.1-7.7,16.4-16.1,16.4    C90.9,127.4,83.7,119.9,83.7,111.1z M108.8,111.2c0-5.6-4.3-9.7-8.8-9.7c-3.8,0-8.9,3.3-8.9,9.7c0,5.8,4.3,9.6,8.9,9.6    C105.3,120.7,108.8,116,108.8,111.2z"
   id="path3870" />
		<path
   class="st9"
   d="M151.4,126.4h-6.7v-3.8h-0.1c-1.4,2.2-4.6,4.8-9.7,4.8c-7.7,0-15.5-6.4-15.5-16.3c0-10.4,8.2-16.4,15.5-16.4    c4.4,0,7.1,1.5,9.2,3.8v-13h7.3V126.4z M135.6,120.7c5.5,0,9-5,9-9.6c0-5-3.8-9.6-9-9.6c-5.4,0-9,5.1-9,9.4    C126.6,116.5,130.8,120.7,135.6,120.7z"
   id="path3872" />
		<path
   class="st9"
   d="M163.1,114.4c0.3,2,3.2,6.3,8.4,6.3c3.2,0,5.7-1.4,7-3.9h7.7c-1.8,5.5-7.5,10.7-14.7,10.7    c-9.3,0-16.1-7.3-16.1-16.3c0-8.7,6.4-16.5,16-16.5c10,0,15.8,8.2,15.8,16c0,1.4-0.2,2.7-0.4,3.7H163.1z M179.7,108.5    c-0.8-4.9-4.3-7-8.2-7c-3,0-7.2,1.3-8.6,7H179.7z"
   id="path3874" />
	</g>
	<g
   id="g3896">
		<g
   id="g3880">
			<path
   class="st9"
   d="M370.2,229.3h-21l-8.4-23.3h-38.3l-7.6,22.4l-23.2,0.1l41.9-98.8h14.6L370.2,229.3z M331.6,184.6l-10.9-29.9     l-11.6,29.9L331.6,184.6z"
   id="path3878" />
		</g>
		<g
   id="g3894">
			<g
   id="g3884">
				<path
   class="st9"
   d="M48.4,228.2v-99.1h21.1l40.4,70.8l-0.2-70.2l19.7,0.3l-0.5,98.2h-21.5l-40.6-70.3l0.9,70.3H48.4z"
   id="path3882" />
			</g>
			<g
   id="g3892">
				<path
   class="st9"
   d="M243.7,102.3h-2.6v-6.5h2.6c0.2-2,0.5-5.8,3.6-8.6c1.7-1.6,4.1-2.5,6.4-2.5h2v7.3c-2.8,0.1-4.4,0.1-4.7,3.8      h4.3v6.5H251v24.2h-7.3V102.3z"
   id="path3886" />
				<path
   class="st9"
   d="M257,111.1c0-9.3,7.5-16.4,16.2-16.4c8.6,0,16.1,6.9,16.1,16.3c0,10.1-7.7,16.4-16.1,16.4      C264.2,127.4,257,119.9,257,111.1z M282.1,111.2c0-5.6-4.3-9.7-8.8-9.7c-3.8,0-8.9,3.3-8.9,9.7c0,5.8,4.3,9.6,8.9,9.6      C278.6,120.7,282.1,116,282.1,111.2z"
   id="path3888" />
				<path
   class="st9"
   d="M294.2,95.7h6.7v2.7h0.1c1.4-2,2.7-3.8,6.5-3.8h0.6v7.1c-6.6,0.3-6.6,5.5-6.6,7.4v17.3h-7.3V95.7z"
   id="path3890" />
			</g>
		</g>
	</g>
	<g
   id="g3900">
		<path
   class="st9"
   d="M133,188.7c0-24.1,19.5-42.5,42-42.5c22.3,0,41.8,17.9,41.8,42.2c0,26.1-19.9,42.5-41.8,42.5    C151.6,230.9,133,211.4,133,188.7z M197.9,188.8c0-14.5-11.1-25.2-22.9-25.2c-9.8,0-23.1,8.4-23.1,25.1c0,15,11.2,24.8,23.1,24.8    C188.8,213.4,197.9,201.4,197.9,188.8z"
   id="path3898" />
	</g>
</g>
</svg>
