<?xml version="1.0" encoding="utf-8"?>
<!DOCTYPE svg PUBLIC "-//W3C//DTD SVG 1.1//EN" "http://www.w3.org/Graphics/SVG/1.1/DTD/svg11.dtd">
<svg version="1.1"
	 id="svg3192" xmlns:svg="http://www.w3.org/2000/svg" xmlns:rdf="http://www.w3.org/1999/02/22-rdf-syntax-ns#" xmlns:cc="http://creativecommons.org/ns#" xmlns:dc="http://purl.org/dc/elements/1.1/"
	 xmlns="http://www.w3.org/2000/svg" xmlns:xlink="http://www.w3.org/1999/xlink" x="0px" y="0px" width="940px" height="500px"
	 viewBox="0 0 940 500" enable-background="new 0 0 940 500" xml:space="preserve">
<g id="layer1" transform="translate(0,-552.36218)">
	<rect id="rect165261" y="552.362" fill="none" width="940" height="500"/>
	<path id="path4102" fill="#CF1B41" d="M656.812,661.643c-0.55-0.017-1.147,0.073-1.781,0.312c-3.206,1.117-7.949,3.063-11.469,4
		c-0.364-0.046-0.678-0.055-0.781,0.188c-0.398,0.093-0.805,0.161-1.156,0.219c-3.188,0.625-3.046,0.644-0.031,5.562
		c-1.103,5.442-0.55,3.727,1.625,2.688c0.093,0.157,0.123,0.212,0.219,0.375c0.002,0.003,0.683-0.032,1.25-0.062
		c-3.611,1.824-7.23,3.622-10.875,5.375c-2.325,1.08-4.666,2.108-7.031,3.094c-0.365,0.134-0.729,0.272-1.094,0.406
		c0.003,0.02-0.003,0.042,0,0.062c-0.395,0.169-0.785,0.35-1.188,0.5c-0.224,0.083-0.798,0.007-0.688,0.219
		c0.78,1.499,1.641,2.938,2.531,4.375c0.212,1.688,0.445,3.375,0.812,5.031c-1.081,0.635-2.168,1.272-3.25,1.906
		c-3.73,3.021-8.938,4.348-12.438,7.688c-0.769,0.734-2.5,1.515-2.031,2.469c1.58,3.211,4.722,5.374,7.125,8.031
		c-1.859,1.201-3.645,2.482-5.312,3.938c-0.6,1.93-2.599,3.919-1.812,5.781c1.094,2.59,4.004,4.144,6.531,5.375
		c2.066,1.006,13.89-2.761,16.25-3.406c1.066-0.312,2.124-0.65,3.188-0.969c-0.786,0.348-1.457,0.628-2.031,0.875
		c-0.026,0.011-0.069,0.02-0.094,0.031c-0.153,0.024-0.284,0.043-0.312,0.125c-0.003,0.008,0.001,0.022,0,0.031
		c-3.816,1.686-2.11,1.86,3.844,12.188c0.287,0.499,1.081-0.345,1.625-0.531c1.024-0.351,5.914-2.118,6.5-2.344
		c1.123-0.432,2.229-0.891,3.344-1.344c2.815-0.846,5.631-1.668,8.469-2.438c-2.517,1.692-9.345,6.453-9,8
		c0.727,3.257,2.705,6.107,4.062,9.156c3.74,0.553,7.113-0.913,10.594-1.844c-2.31,3.452-5.202,6.536-7.969,9.625
		c-3.463,3.894-7.489,7.349-9.969,11.969c1.815,2.953,2.808,6.654,5.469,8.875c1.357,1.132,9.395-2.537,13.906-4.688
		c-0.389,0.276-0.767,0.569-1.156,0.844c-4.374,1.81-8.557,4.019-12.406,6.906c-4.919,4.509-6.399,4.193,0.969,14.094
		c1.592,2.14,11.811-5.316,13.062-6.156c1.506-1.041,3-2.105,4.5-3.156c1.557-0.605,3.151-1.124,4.75-1.625
		c-1.085,1.231-2.234,2.424-3.406,3.531c-4.319,3.207-4.276,2.08,3.094,9.844c0.748,1.944,1.299,2.584,2.188,2.312
		c0.034,0.037,0.06,0.056,0.094,0.094c0.538,0.586,1.409-0.683,2.125-1.031c3.483-1.694,1.819-0.929,5.344-2.469
		c0.559-0.18,1.138-0.375,1.719-0.562c-0.028,0.25-0.073,0.599-0.094,0.781c-0.325,3.607,1.827,7.403,6.094,6.594
		c0.764-0.145,1.174-1.011,1.844-1.406c0.53-0.312,1.151-0.482,1.719-0.719c0.307-0.052,0.244-0.489-0.062-0.438
		c-0.762-0.067-3.469,0.065-2.25-1.469c0.636-0.8,2.898,0.459,3.25,0.75c0.262,0.217,0.191,0.765,0.5,0.906
		c0.202,0.092,0.308-0.316,0.469-0.469c1.28-3.141,2.865-7.297,1.906-10.719c-0.417-1.486-1.352-2.77-2.031-4.156
		c-0.895-0.688-1.694-1.526-2.688-2.062c-1.284-0.693-2.631-1.06-4-1.219c0.035-0.124,0.061-0.25,0.094-0.375
		c-0.032-1.515,0.283-3.095-0.094-4.562c-0.546-2.126-1.579-3.674-2.906-4.812c1.198-0.999,2.393-2.027,3.562-3.062
		c1.427-1.5,5.407-5.108,5.688-7.5c1.122-9.561-4.529-11.566-12.031-9.844c-3.822,0.992-7.597,2.166-11.312,3.5
		c1.596-2.313,2.969-4.759,3.969-7.438c0.238-1.212,0.705-2.421,0.719-3.656c0.037-3.404-1.306-6.047-3.438-7.844
		c3.011-1.956,5.946-4.01,8.75-6.25c2.381-2.275,6.406-5.638,5.438-9.594c-0.337-1.376-0.81-2.47-1.406-3.344
		c8.759-4.089,17.716-7.919,25.969-12.969c4.453-4.63,6.132-4.32,0.906-12.719c-1.629-2.619-11.327-0.081-13.531,0.375
		c-10.584,2.702-20.996,5.924-31.312,9.5c1.619-0.717,3.246-1.43,4.875-2.125c5.916-2.449,12.101-4.335,17.969-6.875
		c1.321-0.572,3.715-0.476,3.875-1.906c0.462-4.129-1.547-8.166-2.312-12.25c-5.831,0.526-11.482,2.372-17.125,3.906
		c1.587-1.145,3.64-2.719,3.406-4.719c-0.909-7.778-4.899-7.91-10.344-7.031c-0.836,0.17-1.671,0.337-2.5,0.531
		c-0.512-1.477-1.11-2.943-1.625-4.406c-0.057-0.162-0.329,0.021-0.5,0.031c-1.25,0.05-2.499,0.078-3.75,0.062
		C660.742,664.006,659.239,661.717,656.812,661.643L656.812,661.643z M671.688,681.018c0.288-0.002,0.556,0.003,0.812,0
		C672.206,681.065,671.922,681.092,671.688,681.018z M709.562,702.518c0.091,0.02-0.561,0.174-1.188,0.156
		C709.128,702.552,709.508,702.506,709.562,702.518z M666.156,746.018c0.031-0.002,0.063,0.002,0.094,0
		c0.297,0.04,0.592,0.027,0.875,0.125C667.453,746.257,666.637,746.167,666.156,746.018L666.156,746.018z M688.781,763.675
		c0.171-0.004,0.018,0.025-0.281,0.031C688.59,763.698,688.736,763.676,688.781,763.675z M679.188,782.206
		C680.055,782.224,679.86,782.388,679.188,782.206z M687.812,794.425c0.236-0.013,0.482-0.012,0.719,0
		c0.013,0.001-0.007,0.029,0,0.031C688.44,794.486,688.178,794.489,687.812,794.425z M686.469,794.643
		c-0.525,0.486-0.776,0.482-0.906,0.219C685.863,794.777,686.165,794.708,686.469,794.643z"/>
	<path id="path165202" fill="#399FD3" d="M583.75,619.331c-0.856,0.014-1.734,0.124-2.594,0.406
		c-0.249,0.082-0.477,0.204-0.719,0.312c-0.196-0.041-0.399-0.107-0.594-0.125c-0.635-0.057-1.264,0.025-1.844,0.188
		c-1.159,0.324-2.272,1.071-3,2.281c-0.598,0.993-0.69,2.209-0.562,3.281h-0.125l0.219,1.812c-1.384,3.543-2.133,7.098-2.719,10.438
		c-0.011,0.052-0.022,0.104-0.031,0.156c-0.864,6.035-2.119,11.981-3.719,17.906c-0.003,0.01,0.003,0.021,0,0.031
		c-2.825,9.952-7.312,19.512-12.188,29.094c-0.006,0.013-0.025,0.019-0.031,0.031c-6.258,12.028-13.834,23.251-22.562,33.656
		c-0.052,0.062-0.104,0.125-0.156,0.188c-6.28,6.733-12.989,12.649-20.875,14.719c-0.836,0.219-2.155,0.375-3.688,0.625
		c-0.01,0.001-0.021-0.001-0.031,0c-6.7,0.617-13.392-2.937-21.75-5.875c-0.067-0.026-0.121-0.036-0.188-0.062
		c-3.954-1.549-7.377-2.523-9.844-4.062l-0.062,0.094c-0.87-0.53-1.901-0.944-2.969-0.875c-0.052,0.003-0.105,0.026-0.156,0.031
		c-1.009-1.151-2.183-2.116-3.562-2.562c-1.14-0.369-2.294-0.465-3.406-0.375s-2.181,0.381-3.156,0.844
		c-1.951,0.925-3.66,2.548-4.531,4.781c-0.853,2.186-0.693,4.87,0.344,7.156h-0.031c0.022,0.05,0.041,0.106,0.062,0.156
		c1.367,3.209,1.796,6.88,1.844,11c0.001,0.055,0,0.101,0,0.156c-0.174,6.357-1.557,12.791-3.344,19.344
		c-0.003,0.01,0.003,0.021,0,0.031c-2.117,7.61-5.423,15.032-9,22.5c-0.004,0.009,0.004,0.023,0,0.031
		c-4.112,8.499-8.953,16.685-14.156,24.719c-0.01,0.01-0.021,0.021-0.031,0.031c-5.236,8.207-11.896,15.37-19.375,21.969
		c-0.028,0.025-0.066,0.038-0.094,0.062c-8.212,6.861-17.807,12.184-27.75,17.375c-0.013,0.007-0.019,0.025-0.031,0.031
		c-11.151,5.685-22.545,10.984-34,16.281c0,0.01,0,0.021,0,0.031c-11.157,5.194-22.475,10.035-33.938,14.469
		c-0.021,0-0.042,0-0.062,0c-9.204,3.669-18.833,6.208-28.719,7.969c-0.02,0.004-0.042-0.004-0.062,0
		c-8.558,1.452-17.01,1.715-25.219,0.094c-3.365-1.085-4.812-2.261-5.875-3.875c-1.087-1.651-1.859-4.263-2.344-8.156
		c-0.206-2.626-0.749-4.971-1.688-7c-0.192-2.287-1.138-4.42-2.844-5.875c-1.836-1.566-4.315-2.141-6.781-1.812
		c-2.459,0.328-4.866,1.565-6.625,3.594h-0.031c-8.643,9.842-19.649,17.635-31.031,25.312c-0.019,0.013-0.043,0.018-0.062,0.031
		c-18.205,11.866-37.365,22.39-56.688,32.781c-0.021,0.01-0.042,0.021-0.062,0.031c-16.851,9.483-35.276,16.895-52.906,26.688
		c-0.012,0.007-0.019,0.024-0.031,0.031c-4.021,2.196-8.068,4.466-12.062,6.875c-6.243-0.395-12.667-0.746-19.281-0.281
		c-0.136,0.015-0.272,0.036-0.406,0.062c-2.487,0.384-5.065,2.253-6.031,4.469s-0.769,4.231-0.312,5.938s1.228,3.212,2.469,4.562
		c1.193,1.299,3.165,2.742,5.906,2.562c0.109-0.007,0.201,0.013,0.312,0c6.479-0.289,13.235,0.315,20.25,0.75
		c0.021,0.001,0.041-0.001,0.062,0c14.368,1.044,28.714,1.526,43,1.906c0.01,0,0.021,0,0.031,0
		c22.976,0.46,45.923,0.889,68.844,1.625c30.52,1.123,61.057,3.304,91.688,5.188c0.01,0.001,0.021-0.001,0.031,0
		c40.176,2.64,80.366,2.995,120.469,2.75c0.021,0,0.042,0,0.062,0c49.266-0.803,98.487-2.107,147.687-2.906c0.01,0,0.021,0,0.031,0
		c52.104-0.645,104.286-0.563,156.5-1.562c0.01,0,0.021,0,0.031,0c31.105-0.879,62.45-1.844,93.656-5.812
		c16.513-2.1,22.165-3.362,38.062-6.281c0.063-0.009,0.125-0.02,0.188-0.031c20.723-4.655,10.99-2.225,30.25-7.406l-0.031-0.062
		c1.14-0.31,2.408-1.102,3.094-2.25c0.724-1.212,0.853-2.544,0.594-3.719s-0.926-2.33-2.094-3.125
		c-1.103-0.751-2.587-0.945-3.75-0.75v-0.062c-19.523,3.373-9.477,1.839-30.062,4.531c-2.271,0.228-4.54,0.439-6.812,0.656
		c-0.42-0.728-0.934-1.428-1.531-2.031l0.031-0.031c-0.03-0.031-0.064-0.063-0.094-0.094c-2.521-2.632-4.38-6.051-6-9.938
		c-2.312-6.003-3.112-12.775-3.719-19.906c-0.001-0.01,0.001-0.021,0-0.031c-0.437-5.638-0.196-11.903-1.469-18.562
		c-0.026-0.137-0.057-0.272-0.094-0.406c-1.113-3.969-3.906-7.499-8.031-8.281c-1.537-0.291-3.05-0.127-4.469,0.344
		c0.994-1.257,1.853-2.513,2.656-3.688c0.012-0.018,0.019-0.045,0.031-0.062c2.357-3.322,5.08-6.586,7.812-10.062
		c0.01-0.01,0.021-0.021,0.031-0.031c7.236-9.439,13.855-19.217,20.469-28.844c0.01,0,0.021,0,0.031,0
		c7.295-10.735,14.708-21.385,22.375-31.812c0.152-0.208,0.288-0.427,0.406-0.656c0.449-0.87,2.345-3.224,4.344-5.625
		s4.23-4.791,5.344-8.438c0.555-1.816,0.523-3.038,0.594-3.5c0.182-1.209-0.084-2.443-0.75-3.469
		c-0.299-0.464-0.794-2.619-3.312-4.812c-2.736-2.383-5.82-2.54-8.156-2.5c-2.336,0.04-4.375,0.405-5.281,0.469
		c-3.956,0.279-3.954,0.184-8,0.125c-2.334-0.256-3.184-0.284-3.438-0.375c0.073-0.259,0.18-0.489,0.25-0.75
		c0.012-0.062,0.022-0.125,0.031-0.188c0.441-1.923,1.109-4.346,0.438-7.406s-3.912-6.333-7.625-7.062
		c-0.319-0.063-0.644-0.094-0.969-0.094c-0.157,0.003-0.313,0.014-0.469,0.031c-3.371,0.321-5.936,1.493-8.031,2.312
		c-0.103,0.04-0.244,0.087-0.344,0.125l0.031,0.062c-1.992,0.695-3.806,2.091-4.719,3.906c-0.965,1.92-1.018,4.037-0.469,5.875
		c0.493,1.651,1.572,3.141,3.125,4.219c-1.06,2.595-2.203,5.213-3.406,7.906c-0.01,0.022-0.022,0.041-0.031,0.062
		c-4.905,10.457-10.026,20.901-14.906,31.531c-0.006,0.013-0.025,0.019-0.031,0.031c-4.962,10.698-9.191,21.642-13.062,32.656
		c-0.011,0.021-0.021,0.042-0.031,0.062c-2.363,6.953-4.75,14.087-6.312,21.656c-0.012,0.073-0.022,0.146-0.031,0.219
		c-0.453,2.754-0.673,5.946,0.781,9.281s5.774,6.228,10.25,5.938c1.931-0.125,3.038-0.652,3.562-1
		c-0.405,0.952-0.669,1.885-0.875,2.812c-4.212,0.17-8.715-0.301-13.5-0.844c-8.373-0.953-16.731-2.19-25.125-3.469
		c0.129-0.106,0.278-0.206,0.406-0.312c0.032-0.031,0.063-0.062,0.094-0.094c5.754-5.001,8.901-11.478,10.844-18.062
		c0.033-0.082,0.065-0.166,0.094-0.25c1.891-8.009,1.717-15.828,2.031-23c0.011-0.031,0.021-0.062,0.031-0.094
		c0.125-6.076,1.359-12.157,3.156-18.281c1.878-5.676,4.148-11.349,6.375-17.188c0.004-0.009-0.004-0.022,0-0.031
		c2.127-5.501,4.036-11.164,5.469-17c1.324-5.491,0.999-11.563-2.312-16.844c-0.016-0.028-0.046-0.035-0.062-0.062
		c-0.031-0.049-0.031-0.107-0.062-0.156l-0.031,0.031c-1.838-3.005-4.917-3.868-6.406-4.25c-0.577-0.148-0.767-0.208-0.969-0.281
		c-0.032-0.07-0.028-0.045-0.062-0.125l-0.094,0.031c-0.425-0.933-1.067-1.864-2-2.406c-0.611-0.355-1.275-0.572-1.906-0.656
		c-0.632-0.084-1.258-0.043-1.844,0.094c-1.172,0.274-2.282,0.979-3.062,2.156c-0.615,0.929-0.803,2.107-0.75,3.156h-0.094
		c0.004,0.06-0.004,0.127,0,0.188c-3.053-1.061-6.024-2.282-8.875-3.719c-0.008-0.004-0.024,0.004-0.031,0
		c-3.657-1.875-7.044-4.743-10.594-7.938c-0.022-0.02-0.041-0.042-0.062-0.062c-3.937-3.663-7.504-7.62-10.562-11.938
		c-0.008-0.011-0.023-0.02-0.031-0.031c-2.097-3.026-3.187-6.733-3.938-11.031c-0.006-0.034-0.025-0.059-0.031-0.094
		c-0.445-4.284-1.161-9.051-3.906-13.594c-0.068-0.117-0.141-0.232-0.219-0.344c-1.995-2.754-5.003-4.712-8.219-5.125
		s-6.289,0.592-8.875,2.25c-0.186,0.123-0.363,0.259-0.531,0.406c-1.994,1.706-4.041,3.13-6.281,4.281
		c-0.008,0.004-0.024-0.004-0.031,0c-3.784,1.901-8.003,2.986-12.531,3.594c-0.011,0.001-0.02-0.001-0.031,0
		c-3.343,0.31-6.203-0.228-8.812-1.625c1.407-2.693,3.704-5.331,6.438-8.219c0.01-0.01,0.021-0.021,0.031-0.031
		c4.015-4.156,8.678-7.792,13.656-11.219c4.223-2.76,8.838-5.294,13.5-8.125c0.054-0.03,0.103-0.063,0.156-0.094
		c3.562-2.02,6.664-4.57,9.375-7.469c0.032-0.041,0.063-0.083,0.094-0.125c2.865-3.229,4.477-7.153,5.031-11.188
		c0.025-0.114,0.046-0.228,0.062-0.344c0.224-3.106-0.942-6.13-2.594-8.125c-1.644-1.986-3.542-3.162-5.219-4.125
		c-0.007-0.004-0.024,0.004-0.031,0c-4.448-2.565-8.734-5.8-13.188-9.125v0.031c-8.391-6.329-16.867-12.598-25.562-18.625
		c-7.036-4.876-14.1-9.38-20.688-14.25c-0.021-0.021-0.042-0.042-0.062-0.062c-3.252-2.321-6.449-5.202-10-8.094
		c-0.048-0.042-0.108-0.083-0.156-0.125c-1.974-1.718-4.112-3.392-6.562-4.812c-0.052-0.022-0.104-0.043-0.156-0.062
		c-4.874-2.623-10.892-1.468-14.719,1.75c-0.239,0.198-0.458,0.418-0.656,0.656c-2.648,3.215-3.831,6.367-5.156,8.438
		c-0.011,0.021-0.021,0.042-0.031,0.062c-1.24,1.975-2.935,3.749-4.938,5.469c-0.313-0.009-0.607-0.018-0.906,0
		c-1.196,0.071-2.27,0.337-3.156,0.594c-1.17,0.339-2.052,0.659-2.75,0.906c-6.307-3.702-12.732-6.836-18.844-10.094
		c-5.303-3.511-10.682-5.706-15.062-8.25c0.828-2.181,0.896-4.628,0.094-6.656c-0.887-2.243-2.595-3.89-4.562-4.812
		c-0.984-0.461-2.068-0.758-3.188-0.844C584.314,619.309,584.036,619.326,583.75,619.331L583.75,619.331z M588.125,649.487
		c3.285,2.646,6.805,4.877,10.219,6.812c0.01,0.01,0.021,0.021,0.031,0.031c6.464,3.581,12.95,6.743,19.125,10.156
		c0.084,0.046,0.166,0.11,0.25,0.156c0.422,0.281,0.957,0.668,1.5,1.062c-5.191,7.627-11.138,14.875-17.281,22.094
		c-0.01,0.011-0.022,0.02-0.031,0.031c-3.965,4.602-8.149,9.001-12.531,13.219l0.031,0.031c-4.118,3.808-4.825,9.447-4.062,13.781
		c0.019,0.084,0.04,0.167,0.062,0.25c1.22,5.244,3.053,10.124,4.844,14.781c0.01,0.021,0.021,0.042,0.031,0.062
		c2.229,5.593,4.737,10.967,7.219,16.25c0.004,0.009-0.004,0.023,0,0.031c1.466,3.179,2.752,6.402,3.812,9.688
		c0.009,0.031,0.022,0.062,0.031,0.094c0.664,2.194,1.364,4.395,3.156,6.438c1.818,2.072,4.46,3.278,7.281,3.906
		c0.513,0.113,1.04,0.145,1.562,0.094c6.154-0.578,10.997-3.348,15.062-5.094c0.01-0.01,0.021-0.021,0.031-0.031
		c3.845-1.68,7.844-3.133,11.812-4.625c-0.87,5.481-1.72,10.946-2.688,16.344c0,0.031,0,0.062,0,0.094
		c-0.865,5.461-2.449,11.19-3.469,17.375c-0.026,0.124-0.046,0.249-0.062,0.375c-0.159,1.845-0.123,3.503,0.344,5.219
		s1.569,3.466,2.938,4.531c2.594,2.019,4.778,2.117,6.75,2.531c5.003,1.975,9.932,5.008,15.156,8.094
		c0.012,0.007,0.019,0.024,0.031,0.031c9.091,5.452,18.036,11.173,26.781,17.156c0.122,0.078,0.247,0.151,0.375,0.219
		c0.347,0.195,2.751,2.111,5.281,3.812s5.641,4.158,10.438,2.812c2.87-0.805,4.163-2.22,4.594-2.469
		c0.915-0.533,1.637-1.343,2.062-2.312c0.249-0.559,0.86-1.555,1.375-3.156c1.076-3.348,0.901-6.247,1.125-7.875
		c0.499-3.618,0.429-2.908,1.125-6.531c0.02-0.104,0.01-0.076,0.031-0.188c2.421-10.5,4.603-20.892,7.375-31.031l0.031-0.062
		l1.625-5.625l-0.094-0.031c0.292-1.05,0.361-2.293-0.094-3.375c-0.547-1.302-1.525-2.2-2.625-2.688s-2.418-0.626-3.75-0.156
		c-1.115,0.393-2.014,1.29-2.594,2.219l-0.094-0.062l-3.094,5.094c-5.787,9.587-12.168,19.828-14.625,32.125
		c-0.005,0.023-0.027,0.04-0.031,0.062h0.031c-0.173,0.827-0.277,1.672-0.438,2.5c-8.335-5.638-16.774-11.14-25.406-16.312
		c-0.01,0-0.021,0-0.031,0c-4.638-2.738-9.539-5.911-15.125-8.312c0.752-3.565,1.508-7.01,2.094-10.906h0.031
		c0.005-0.032-0.005-0.062,0-0.094c1.199-7.097,2.223-14.167,3.281-21.188c0.003-0.02-0.003-0.042,0-0.062
		c0.126-0.73,0.614-2.668,1-4.719c0.391-2.077,1.044-4.082,0.062-7.219c-0.669-2.139-1.6-3.16-1.781-3.5
		c-0.435-0.832-1.096-1.526-1.906-2c-0.307-0.175-1.233-1.026-3.125-1.719c-3.135-1.149-5.972-0.513-8.062,0.094
		c-2.09,0.607-3.789,1.271-4.531,1.438c-0.18,0.042-0.357,0.094-0.531,0.156c-6.38,2.186-12.624,4.651-18.781,7.312
		c-1.362,0.585-2.798,1.213-4.219,1.812c-0.969-2.61-1.891-5.224-3.125-7.844c-0.014-0.031-0.017-0.063-0.031-0.094
		c-2.342-5.185-4.742-10.194-6.719-15.188c-0.008-0.022-0.023-0.041-0.031-0.062c-1.414-3.672-2.687-7.239-3.625-10.781
		c4.08-4.103,8.274-8.271,12.188-12.906c0.015-0.017,0.017-0.045,0.031-0.062c7.046-8.16,13.984-16.632,20-25.906
		c0.021-0.031,0.042-0.062,0.062-0.094c0.835-1.354,2.731-4.137,4.375-7.188c0.584-1.084,1.196-2.174,1.719-3.344
		c0.032-0.031,0.063-0.062,0.094-0.094c4.223-3.291,8.287-7.11,11.5-11.938c0.021-0.031,0.042-0.062,0.062-0.094
		c0.161-0.254,0.306-0.556,0.469-0.812c3.261,2.879,6.607,5.785,10.312,8.438c0.01,0.01,0.021,0.021,0.031,0.031
		c7.063,4.956,14.262,9.467,21.188,14.156l-0.031,0.031c8.483,5.878,16.836,11.923,25.062,18.156
		c0.031,0.011,0.062,0.021,0.094,0.031c3.54,2.59,7.237,5.264,11.156,7.781c-0.944,0.76-1.998,1.501-3.219,2.281
		c-0.026,0.017-0.036,0.045-0.062,0.062c-4.645,2.826-9.437,5.64-14.156,8.812c-0.021,0.01-0.042,0.021-0.062,0.031
		c-5.827,4.018-11.479,8.49-16.562,13.75c-0.01,0.01-0.021,0.021-0.031,0.031c-4.125,4.378-9.027,9.462-11.188,16.75
		c-0.07,0.235-0.122,0.476-0.156,0.719c-0.52,3.57-0.34,7.081,1.031,10.281s3.844,5.786,6.875,7.875
		c0.131,0.09,0.267,0.173,0.406,0.25c6.31,3.512,13.351,4.896,20.531,4.094c0.042,0.001,0.083,0.001,0.125,0
		c6.265-0.866,12.599-2.479,18.562-5.5c0.042-0.02,0.084-0.041,0.125-0.062c0.688-0.377,1.373-0.843,2.062-1.25
		c0.046,0.254,0.042,0.388,0.094,0.656c0.008,0.039,0.023,0.054,0.031,0.094c1.108,6.175,2.998,12.522,6.969,18.219
		c0.01,0.021,0.021,0.042,0.031,0.062c3.849,5.39,8.244,10.343,13.062,14.844c4.275,3.943,8.998,7.911,14.719,10.812
		c0.031,0.021,0.062,0.042,0.094,0.062c4.248,2.037,8.683,3.857,13.375,5.219c0.021,0,0.042,0,0.062,0
		c1.331,0.37,2.705,0.713,4.125,1c-1.058,3.68-2.34,7.335-3.75,11c-0.01,0-0.021,0-0.031,0c-2.254,5.909-4.723,11.955-6.75,18.344
		c-0.021,0.031-0.042,0.062-0.062,0.094c-2.153,7.362-3.683,15.034-3.812,23.031c0,0.032,0,0.062,0,0.094
		c-0.223,6.815-0.118,13.229-1.281,19.062c-1.132,3.956-2.591,6.945-5.188,9.219c-2.567,2.244-5.184,3.929-7.969,4.781
		c-0.022,0.007-0.041,0.025-0.062,0.031c-3.149,0.895-6.335,1.363-9.5,1.312c-0.019,0-0.043,0.001-0.062,0
		c-2.554-0.069-5.272-0.352-8.156-0.594c-2.382-0.194-4.569,1.325-5.219,3.625c-0.615,2.179-1.735,4.831-2.281,8.188
		c-0.354,2.177,0.624,3.432,1.094,4s0.766,0.77,1,0.938c0.467,0.334,0.735,0.447,0.969,0.562c0.468,0.23,0.846,0.394,1.281,0.562
		c0.871,0.336,1.866,0.685,2.906,1.031s2.108,0.679,2.938,0.938c0.786,0.245,1.001,0.325,1.688,0.5
		c0.032,0.009,0.062,0.023,0.094,0.031c8.483,2.312,17.101,4.099,25.781,5.406c0.01,0.002,0.021-0.002,0.031,0
		c9.921,1.536,19.889,2.906,29.875,4.062c0.021,0,0.042,0,0.062,0c5.839,0.601,12.146,1.463,18.875,0.719
		c0.073-0.009,0.146-0.019,0.219-0.031c0.079-0.012,0.2-0.05,0.281-0.062c0.042,0.615,0.031,1.153,0.094,1.781
		c0.003,0.04-0.003,0.085,0,0.125c0.628,8.18,1.626,16.74,4.938,25.062c0.02,0.052,0.041,0.104,0.062,0.156
		c1.029,2.356,2.189,4.74,3.562,7.062c-34.25,2.794-68.63,4.43-103,5.125c-0.01,0-0.021,0-0.031,0
		c-52.084,0.757-104.207,0.566-156.406,1.156c-0.01,0-0.021,0-0.031,0c-49.241,0.725-98.436,2.041-147.594,2.75
		c-0.021,0-0.042,0-0.062,0c-39.813,0.244-79.58-0.146-119.187-2.781c-0.01,0-0.021,0-0.031,0
		c-30.647-1.884-61.344-4.103-92.188-5.25c-0.01,0-0.021,0-0.031,0c-23.021-0.738-46.022-1.144-69-1.531c-0.01,0-0.021,0-0.031,0
		c-3.721-0.099-7.446-0.198-11.156-0.312c13.302-5.713,25.951-12.535,38.5-19c0.031-0.021,0.063-0.041,0.094-0.062
		c19.648-10.567,39.357-21.33,58.219-33.719c0.021-0.021,0.042-0.042,0.062-0.062c7.687-5.239,15.482-10.673,22.719-16.969
		c3.382,8.808,10.909,14.887,19.844,17.406c0.124,0.036,0.249,0.067,0.375,0.094c10.843,2.183,21.745,1.965,32.438,0.094
		c10.952-1.963,21.776-4.819,32.25-8.969c0.013-0.005,0.019-0.026,0.031-0.031c11.842-4.585,23.492-9.618,34.969-14.938
		c0.008-0.004,0.023,0.004,0.031,0c11.605-5.367,23.237-10.849,34.719-16.688c0.021,0,0.042,0,0.062,0
		c10.732-5.608,21.65-11.639,31.375-19.844c0.032-0.031,0.063-0.062,0.094-0.094c8.553-7.569,16.4-16.003,22.719-25.875
		c0.005-0.007-0.005-0.024,0-0.031c5.553-8.586,10.732-17.478,15.25-26.75c0-0.01,0-0.021,0-0.031
		c3.895-8.143,7.601-16.596,10.094-25.656c0.011-0.021,0.021-0.042,0.031-0.062c2.003-7.68,3.77-15.753,3.781-24.281
		c0.001-0.052,0.001-0.104,0-0.156c-0.023-0.779-0.05-1.58-0.094-2.375c9.248,7.655,19.666,10.826,31.594,10.125
		c0.21-0.018,0.419-0.049,0.625-0.094c1.652-0.31,3.785-0.483,6.219-1.156c12.283-3.396,21.501-11.875,29.125-20.219
		c0.053-0.051,0.105-0.103,0.156-0.156c9.594-11.446,18.087-23.814,25.031-37.156c5.299-10.276,10.377-20.983,13.594-32.594
		c0-0.01,0-0.021,0-0.031C586.468,657.022,587.347,653.282,588.125,649.487L588.125,649.487z M847,806.737
		c0.743,0.416,1.352,0.89,4,2.25c0.152,0.081,0.309,0.154,0.469,0.219c4.512,1.741,4.69,1.714,5.594,2
		c-0.951,1.244-1.869,2.394-2.812,3.719c-0.023,0.032-0.04,0.062-0.062,0.094c-7.792,10.603-15.344,21.396-22.719,32.25
		c-2.77,4.08-5.55,8.128-8.344,12.156c1.96-4.962,4.029-9.884,6.25-14.719c4.836-10.538,9.97-21.006,14.906-31.656
		c0.011-0.031,0.021-0.062,0.031-0.094C845.213,810.938,846.114,808.85,847,806.737L847,806.737z"/>
	<g id="g4288" transform="translate(120,-400)">
		<path id="path4246" fill="#00297B" d="M-42,1246.596h29.149v-114.255l65.745,114.255h32.553v-157.234H56.298v114.468
			l-65.106-114.468H-42L-42,1246.596"/>
		<path id="path4248" fill="#00297B" d="M159.752,1125.958c-34.255,0-62.34,27.872-62.34,61.702
			c0,34.042,28.085,61.702,62.553,61.702c34.255,0,62.766-27.66,62.766-60.851C222.731,1153.405,195.284,1125.958,159.752,1125.958
			 M159.965,1151.915c18.936,0,34.255,16.17,34.255,35.745c0,19.787-15.319,35.745-34.043,35.745
			c-19.149,0-34.255-15.958-34.255-36.17C125.922,1167.873,141.454,1151.916,159.965,1151.915"/>
		<path id="path4250" fill="#00297B" d="M267.31,1246.596h23.83l60.851-157.234h-30.638l-42.34,119.574l-42.34-119.574h-30.638
			L267.31,1246.596"/>
		<path id="path4252" fill="#00297B" d="M312.591,1246.596h32.128l17.447-40.638h55.957l16.809,40.638h32.128l-65.957-157.234
			h-22.979L312.591,1246.596 M372.804,1178.086l16.809-47.66l16.809,47.66H372.804"/>
	</g>
	<g id="text4294" transform="translate(120,-400)">
		<path id="path4843" fill="#00297B" d="M-5.092,1068.267c-2.893,4.471-6.224,6.4-11.046,6.4c-8.065,0-14.114-6.312-14.114-14.816
			c0-8.504,5.786-14.64,13.851-14.64c5.26,0,8.942,2.192,11.309,6.663h13.15c-1.666-4.909-3.244-7.452-6.575-10.52
			c-4.734-4.383-11.134-6.838-17.884-6.838c-14.377,0-25.599,11.134-25.599,25.423c0,14.114,11.572,25.423,25.949,25.423
			c11.309,0,20.076-6.224,24.108-17.095H-5.092"/>
		<path id="path4845" fill="#00297B" d="M39.848,1034.515c-14.114,0-25.686,11.484-25.686,25.423
			c0,14.027,11.572,25.423,25.774,25.423c14.114,0,25.862-11.397,25.862-25.073C65.797,1045.824,54.488,1034.515,39.848,1034.515
			 M39.935,1045.211c7.802,0,14.114,6.663,14.114,14.728c0,8.153-6.312,14.728-14.027,14.728c-7.89,0-14.114-6.575-14.114-14.903
			C25.909,1051.786,32.308,1045.211,39.935,1045.211"/>
		<path id="path4847" fill="#00297B" d="M121.432,1019.437h-11.66v20.514c-3.419-3.77-9.03-6.049-15.166-6.049
			c-13.588,0-24.284,11.397-24.284,25.949c0,14.377,10.608,25.511,24.371,25.511c6.575,0,11.397-2.192,16.043-7.452v6.312h10.695
			L121.432,1019.437 M96.272,1044.597c8.153,0,14.377,6.575,14.377,15.079c0,8.416-6.224,14.991-14.114,14.991
			c-8.153,0-14.465-6.75-14.465-15.342C82.07,1051.085,88.295,1044.597,96.272,1044.597"/>
		<path id="path4849" fill="#00297B" d="M178.429,1065.111c0.351-1.666,0.438-2.718,0.438-4.471
			c0-15.079-10.608-26.125-25.073-26.125c-14.29,0-25.599,11.309-25.599,25.599c0,14.202,11.484,25.248,26.3,25.248
			c7.978,0,14.202-2.893,19.287-8.767c1.841-2.279,3.068-4.296,3.857-6.75h-12.712c-2.981,3.507-5.874,4.822-10.695,4.822
			c-6.926,0-12.01-3.682-13.413-9.556L178.429,1065.111 M140.47,1054.854c1.841-6.224,6.575-9.643,13.501-9.643
			c7.189,0,11.923,3.419,13.413,9.643H140.47"/>
		<g id="g5638" transform="matrix(1.1183943,0,0,1.1183943,-26.317409,-128.01052)">
			<path id="path4851" fill="#00297B" d="M199.781,1041.875v12.75h12.75v-12.75H199.781z M199.781,1070.188v12.375h12.75v-12.375
				H199.781z"/>
			<path id="path4853" fill="#00297B" d="M232.031,1041.875v12.75h12.75v-12.75H232.031z M232.031,1070.188v12.375h12.75v-12.375
				H232.031z"/>
		</g>
		<path id="path4855" fill="#00297B" d="M268.13,1084.222h11.66v-37.96h6.575v-9.731h-6.575c0.088-4.383,1.578-5.874,6.137-5.874
			h1.14v-11.046c-1.403-0.175-2.104-0.175-2.893-0.175c-4.997,0-9.205,1.841-12.186,5.435c-2.367,2.805-3.244,5.611-3.857,11.66
			h-4.208v9.731h4.208V1084.222"/>
		<path id="path4857" fill="#00297B" d="M315.847,1034.515c-14.114,0-25.686,11.484-25.686,25.423
			c0,14.027,11.572,25.423,25.774,25.423c14.114,0,25.862-11.397,25.862-25.073C341.796,1045.824,330.487,1034.515,315.847,1034.515
			 M315.935,1045.211c7.802,0,14.114,6.663,14.114,14.728c0,8.153-6.312,14.728-14.027,14.728c-7.89,0-14.114-6.575-14.114-14.903
			C301.908,1051.786,308.308,1045.211,315.935,1045.211"/>
		<path id="path4859" fill="#00297B" d="M348.426,1084.222h11.66v-27.001c0-7.539,3.419-11.309,10.432-11.484v-11.221h-0.877
			c-4.997,0-7.452,1.403-10.52,5.874v-4.734h-10.695V1084.222"/>
	</g>
</g>
</svg>
